<mxfile host="app.diagrams.net" agent="Mozilla/5.0 (Windows NT 10.0; Win64; x64) AppleWebKit/537.36 (KHTML, like Gecko) Chrome/129.0.0.0 Safari/537.36 Edg/129.0.0.0" version="24.7.17">
  <diagram name="第 1 页" id="HCUVQpsvBnsszOfaJM8N">
    <mxGraphModel dx="1372" dy="816" grid="0" gridSize="10" guides="1" tooltips="1" connect="1" arrows="1" fold="1" page="1" pageScale="1" pageWidth="827" pageHeight="1169" background="#000000" math="0" shadow="0">
      <root>
        <mxCell id="0" />
        <mxCell id="1" parent="0" />
        <mxCell id="VpYt9LzkhfkG9tVjbVdd-90" value="" style="rounded=1;whiteSpace=wrap;html=1;fillColor=#647687;strokeColor=#314354;fontColor=#ffffff;" vertex="1" parent="1">
          <mxGeometry x="224" y="764" width="50" height="30" as="geometry" />
        </mxCell>
        <mxCell id="VpYt9LzkhfkG9tVjbVdd-91" value="" style="rounded=1;whiteSpace=wrap;html=1;fillColor=#a0522d;strokeColor=#6D1F00;fontColor=#ffffff;" vertex="1" parent="1">
          <mxGeometry x="220" y="768" width="50" height="30" as="geometry" />
        </mxCell>
        <mxCell id="VpYt9LzkhfkG9tVjbVdd-50" value="&lt;font style=&quot;font-size: 8px;&quot;&gt;Data D&lt;sub&gt;N&lt;/sub&gt;&lt;/font&gt;" style="shape=datastore;whiteSpace=wrap;html=1;align=center;fillColor=#647687;strokeColor=#314354;fontColor=#ffffff;" vertex="1" parent="1">
          <mxGeometry x="403" y="705" width="40" height="29" as="geometry" />
        </mxCell>
        <mxCell id="VpYt9LzkhfkG9tVjbVdd-1" value="&lt;font color=&quot;#ffffff&quot; style=&quot;font-size: 8px;&quot;&gt;PTM&lt;/font&gt;" style="rounded=1;whiteSpace=wrap;html=1;fillColor=#4472C4;strokeColor=#4472C4;fontColor=#ffffff;" vertex="1" parent="1">
          <mxGeometry x="218" y="594" width="50" height="30" as="geometry" />
        </mxCell>
        <mxCell id="VpYt9LzkhfkG9tVjbVdd-3" value="&lt;font style=&quot;font-size: 8px;&quot;&gt;Data D&lt;sub&gt;1&lt;/sub&gt;&lt;/font&gt;" style="shape=datastore;whiteSpace=wrap;html=1;align=center;fillColor=#76608a;strokeColor=#432D57;opacity=60;fontColor=#ffffff;" vertex="1" parent="1">
          <mxGeometry x="138" y="654" width="40" height="30" as="geometry" />
        </mxCell>
        <mxCell id="VpYt9LzkhfkG9tVjbVdd-7" value="" style="endArrow=none;dashed=1;html=1;dashPattern=1 3;strokeWidth=2;rounded=0;strokeColor=#FFFFFF;" edge="1" parent="1">
          <mxGeometry width="50" height="50" relative="1" as="geometry">
            <mxPoint x="258" y="668.83" as="sourcePoint" />
            <mxPoint x="288" y="668.83" as="targetPoint" />
          </mxGeometry>
        </mxCell>
        <mxCell id="VpYt9LzkhfkG9tVjbVdd-9" value="" style="endArrow=classic;html=1;rounded=0;exitX=0.173;exitY=1.003;exitDx=0;exitDy=0;exitPerimeter=0;strokeColor=#4472C4;" edge="1" parent="1" source="VpYt9LzkhfkG9tVjbVdd-1">
          <mxGeometry width="50" height="50" relative="1" as="geometry">
            <mxPoint x="198" y="624" as="sourcePoint" />
            <mxPoint x="158" y="658" as="targetPoint" />
          </mxGeometry>
        </mxCell>
        <mxCell id="VpYt9LzkhfkG9tVjbVdd-11" value="&lt;font style=&quot;font-size: 8px;&quot;&gt;Data D&lt;sub&gt;2&lt;/sub&gt;&lt;/font&gt;" style="shape=datastore;whiteSpace=wrap;html=1;align=center;fillColor=#e51400;strokeColor=#B20000;opacity=60;fontColor=#ffffff;" vertex="1" parent="1">
          <mxGeometry x="198" y="654" width="40" height="30" as="geometry" />
        </mxCell>
        <mxCell id="VpYt9LzkhfkG9tVjbVdd-12" value="&lt;font style=&quot;font-size: 8px;&quot;&gt;Data D&lt;sub&gt;N&lt;/sub&gt;&lt;/font&gt;" style="shape=datastore;whiteSpace=wrap;html=1;align=center;fillColor=#647687;strokeColor=#314354;opacity=60;fontColor=#ffffff;" vertex="1" parent="1">
          <mxGeometry x="308" y="654" width="40" height="30" as="geometry" />
        </mxCell>
        <mxCell id="VpYt9LzkhfkG9tVjbVdd-14" value="" style="endArrow=classic;html=1;rounded=0;exitX=0.75;exitY=1;exitDx=0;exitDy=0;entryX=0.476;entryY=0.089;entryDx=0;entryDy=0;entryPerimeter=0;strokeColor=#4472C4;" edge="1" parent="1" source="VpYt9LzkhfkG9tVjbVdd-1" target="VpYt9LzkhfkG9tVjbVdd-12">
          <mxGeometry width="50" height="50" relative="1" as="geometry">
            <mxPoint x="258" y="624" as="sourcePoint" />
            <mxPoint x="328" y="654" as="targetPoint" />
          </mxGeometry>
        </mxCell>
        <mxCell id="VpYt9LzkhfkG9tVjbVdd-19" value="&lt;font style=&quot;font-size: 8px;&quot;&gt;Agent M&lt;sub&gt;1&lt;/sub&gt;&lt;/font&gt;" style="rounded=1;whiteSpace=wrap;html=1;fillColor=#76608a;strokeColor=#432D57;opacity=60;fontColor=#ffffff;" vertex="1" parent="1">
          <mxGeometry x="133" y="704" width="50" height="30" as="geometry" />
        </mxCell>
        <mxCell id="VpYt9LzkhfkG9tVjbVdd-20" value="&lt;font style=&quot;font-size: 8px;&quot;&gt;Agent M&lt;sub&gt;2&lt;/sub&gt;&lt;/font&gt;" style="rounded=1;whiteSpace=wrap;html=1;fillColor=#e51400;strokeColor=#B20000;opacity=60;fontColor=#ffffff;" vertex="1" parent="1">
          <mxGeometry x="193" y="703" width="50" height="30" as="geometry" />
        </mxCell>
        <mxCell id="VpYt9LzkhfkG9tVjbVdd-22" value="" style="endArrow=classic;html=1;rounded=0;strokeColor=#4472C4;" edge="1" parent="1">
          <mxGeometry width="50" height="50" relative="1" as="geometry">
            <mxPoint x="157.82999999999998" y="683" as="sourcePoint" />
            <mxPoint x="157.82999999999998" y="703" as="targetPoint" />
          </mxGeometry>
        </mxCell>
        <mxCell id="VpYt9LzkhfkG9tVjbVdd-23" value="" style="endArrow=classic;html=1;rounded=0;strokeColor=#4472C4;" edge="1" parent="1">
          <mxGeometry width="50" height="50" relative="1" as="geometry">
            <mxPoint x="217.82999999999998" y="684" as="sourcePoint" />
            <mxPoint x="217.82999999999998" y="704" as="targetPoint" />
          </mxGeometry>
        </mxCell>
        <mxCell id="VpYt9LzkhfkG9tVjbVdd-24" value="" style="endArrow=classic;html=1;rounded=0;strokeColor=#4472C4;" edge="1" parent="1">
          <mxGeometry width="50" height="50" relative="1" as="geometry">
            <mxPoint x="327.83" y="684" as="sourcePoint" />
            <mxPoint x="327.83" y="704" as="targetPoint" />
          </mxGeometry>
        </mxCell>
        <mxCell id="VpYt9LzkhfkG9tVjbVdd-25" value="" style="endArrow=none;dashed=1;html=1;dashPattern=1 3;strokeWidth=2;rounded=0;strokeColor=#FFFFFF;" edge="1" parent="1">
          <mxGeometry width="50" height="50" relative="1" as="geometry">
            <mxPoint x="258" y="717.83" as="sourcePoint" />
            <mxPoint x="288" y="717.83" as="targetPoint" />
          </mxGeometry>
        </mxCell>
        <mxCell id="VpYt9LzkhfkG9tVjbVdd-26" value="&lt;font style=&quot;font-size: 8px;&quot;&gt;Agent M&lt;sub&gt;N&lt;/sub&gt;&lt;/font&gt;" style="rounded=1;whiteSpace=wrap;html=1;fillColor=#647687;strokeColor=#314354;opacity=60;fontColor=#ffffff;" vertex="1" parent="1">
          <mxGeometry x="302" y="704" width="50" height="30" as="geometry" />
        </mxCell>
        <mxCell id="VpYt9LzkhfkG9tVjbVdd-10" value="" style="endArrow=classic;html=1;rounded=0;exitX=0.344;exitY=1.011;exitDx=0;exitDy=0;exitPerimeter=0;entryX=0.488;entryY=0.15;entryDx=0;entryDy=0;entryPerimeter=0;strokeColor=#4472C4;" edge="1" parent="1" source="VpYt9LzkhfkG9tVjbVdd-1" target="VpYt9LzkhfkG9tVjbVdd-11">
          <mxGeometry width="50" height="50" relative="1" as="geometry">
            <mxPoint x="248" y="624" as="sourcePoint" />
            <mxPoint x="218" y="654" as="targetPoint" />
          </mxGeometry>
        </mxCell>
        <mxCell id="VpYt9LzkhfkG9tVjbVdd-55" value="" style="edgeStyle=orthogonalEdgeStyle;rounded=0;orthogonalLoop=1;jettySize=auto;html=1;" edge="1" parent="1" target="VpYt9LzkhfkG9tVjbVdd-49">
          <mxGeometry relative="1" as="geometry">
            <mxPoint x="423" y="624" as="sourcePoint" />
          </mxGeometry>
        </mxCell>
        <mxCell id="VpYt9LzkhfkG9tVjbVdd-51" value="..." style="shape=datastore;whiteSpace=wrap;html=1;align=center;fillColor=#a0522d;strokeColor=#6D1F00;fontColor=#ffffff;" vertex="1" parent="1">
          <mxGeometry x="403" y="687.5" width="40" height="29" as="geometry" />
        </mxCell>
        <mxCell id="VpYt9LzkhfkG9tVjbVdd-49" value="&lt;font style=&quot;font-size: 8px;&quot;&gt;Data D&lt;sub&gt;2&lt;/sub&gt;&lt;/font&gt;" style="shape=datastore;whiteSpace=wrap;html=1;align=center;fillColor=#e51400;strokeColor=#B20000;fontColor=#ffffff;" vertex="1" parent="1">
          <mxGeometry x="403" y="667.5" width="40" height="30" as="geometry" />
        </mxCell>
        <mxCell id="VpYt9LzkhfkG9tVjbVdd-48" value="&lt;font style=&quot;font-size: 8px;&quot;&gt;Data D&lt;sub&gt;1&lt;/sub&gt;&lt;/font&gt;" style="shape=datastore;whiteSpace=wrap;html=1;align=center;fillColor=#76608a;strokeColor=#432D57;fontColor=#ffffff;" vertex="1" parent="1">
          <mxGeometry x="403" y="647.5" width="40" height="30" as="geometry" />
        </mxCell>
        <mxCell id="VpYt9LzkhfkG9tVjbVdd-52" value="" style="endArrow=classic;html=1;rounded=0;exitX=0.5;exitY=1;exitDx=0;exitDy=0;entryX=0.503;entryY=0.165;entryDx=0;entryDy=0;entryPerimeter=0;strokeColor=#4472C4;" edge="1" parent="1" target="VpYt9LzkhfkG9tVjbVdd-48">
          <mxGeometry width="50" height="50" relative="1" as="geometry">
            <mxPoint x="423" y="624" as="sourcePoint" />
            <mxPoint x="423" y="644" as="targetPoint" />
          </mxGeometry>
        </mxCell>
        <mxCell id="VpYt9LzkhfkG9tVjbVdd-71" value="" style="endArrow=none;dashed=1;html=1;dashPattern=1 3;strokeWidth=2;rounded=0;strokeColor=#FFFFFF;" edge="1" parent="1">
          <mxGeometry width="50" height="50" relative="1" as="geometry">
            <mxPoint x="613" y="638.83" as="sourcePoint" />
            <mxPoint x="643" y="638.83" as="targetPoint" />
          </mxGeometry>
        </mxCell>
        <mxCell id="VpYt9LzkhfkG9tVjbVdd-77" value="" style="endArrow=none;html=1;rounded=0;entryX=0.5;entryY=1;entryDx=0;entryDy=0;strokeColor=#4472C4;" edge="1" parent="1">
          <mxGeometry width="50" height="50" relative="1" as="geometry">
            <mxPoint x="608" y="684" as="sourcePoint" />
            <mxPoint x="513" y="655" as="targetPoint" />
          </mxGeometry>
        </mxCell>
        <mxCell id="VpYt9LzkhfkG9tVjbVdd-78" value="" style="endArrow=none;html=1;rounded=0;entryX=0.5;entryY=1;entryDx=0;entryDy=0;strokeColor=#4472C4;" edge="1" parent="1">
          <mxGeometry width="50" height="50" relative="1" as="geometry">
            <mxPoint x="608" y="684" as="sourcePoint" />
            <mxPoint x="573" y="654" as="targetPoint" />
          </mxGeometry>
        </mxCell>
        <mxCell id="VpYt9LzkhfkG9tVjbVdd-79" value="" style="endArrow=none;html=1;rounded=0;entryX=0.5;entryY=1;entryDx=0;entryDy=0;strokeColor=#4472C4;" edge="1" parent="1">
          <mxGeometry width="50" height="50" relative="1" as="geometry">
            <mxPoint x="608" y="684" as="sourcePoint" />
            <mxPoint x="682.0000000000002" y="655" as="targetPoint" />
          </mxGeometry>
        </mxCell>
        <mxCell id="VpYt9LzkhfkG9tVjbVdd-82" value="" style="shape=trapezoid;perimeter=trapezoidPerimeter;whiteSpace=wrap;html=1;fixedSize=1;fillColor=#fa6800;strokeColor=#C73500;rotation=-180;fontColor=#000000;" vertex="1" parent="1">
          <mxGeometry x="545.5" y="684" width="125" height="25" as="geometry" />
        </mxCell>
        <mxCell id="VpYt9LzkhfkG9tVjbVdd-89" value="" style="rounded=1;whiteSpace=wrap;html=1;fillColor=#e51400;strokeColor=#B20000;fontColor=#ffffff;" vertex="1" parent="1">
          <mxGeometry x="216" y="772" width="50" height="30" as="geometry" />
        </mxCell>
        <mxCell id="VpYt9LzkhfkG9tVjbVdd-86" value="&lt;font style=&quot;font-size: 8px;&quot;&gt;Agent M&lt;sub&gt;1&lt;/sub&gt;&lt;/font&gt;" style="rounded=1;whiteSpace=wrap;html=1;fillColor=#76608a;strokeColor=#432D57;fontColor=#ffffff;" vertex="1" parent="1">
          <mxGeometry x="212" y="776" width="50" height="30" as="geometry" />
        </mxCell>
        <mxCell id="VpYt9LzkhfkG9tVjbVdd-98" value="" style="endArrow=classic;html=1;rounded=0;entryX=0.5;entryY=0;entryDx=0;entryDy=0;strokeColor=#4472C4;" edge="1" parent="1" target="VpYt9LzkhfkG9tVjbVdd-86">
          <mxGeometry width="50" height="50" relative="1" as="geometry">
            <mxPoint x="157.76" y="734" as="sourcePoint" />
            <mxPoint x="218" y="764" as="targetPoint" />
          </mxGeometry>
        </mxCell>
        <mxCell id="VpYt9LzkhfkG9tVjbVdd-99" value="" style="endArrow=classic;html=1;rounded=0;entryX=0.5;entryY=0;entryDx=0;entryDy=0;strokeColor=#4472C4;" edge="1" parent="1" target="VpYt9LzkhfkG9tVjbVdd-89">
          <mxGeometry width="50" height="50" relative="1" as="geometry">
            <mxPoint x="218" y="733" as="sourcePoint" />
            <mxPoint x="238" y="754" as="targetPoint" />
          </mxGeometry>
        </mxCell>
        <mxCell id="VpYt9LzkhfkG9tVjbVdd-101" value="" style="endArrow=classic;html=1;rounded=0;entryX=0.5;entryY=0;entryDx=0;entryDy=0;strokeColor=#4472C4;" edge="1" parent="1" target="VpYt9LzkhfkG9tVjbVdd-90">
          <mxGeometry width="50" height="50" relative="1" as="geometry">
            <mxPoint x="326.85999999999996" y="734" as="sourcePoint" />
            <mxPoint x="326.85999999999996" y="754" as="targetPoint" />
          </mxGeometry>
        </mxCell>
        <mxCell id="VpYt9LzkhfkG9tVjbVdd-103" value="" style="endArrow=classic;html=1;rounded=0;exitX=0.5;exitY=1;exitDx=0;exitDy=0;entryX=0.5;entryY=0;entryDx=0;entryDy=0;strokeColor=#4472C4;" edge="1" parent="1">
          <mxGeometry width="50" height="50" relative="1" as="geometry">
            <mxPoint x="422.9" y="734" as="sourcePoint" />
            <mxPoint x="423" y="770" as="targetPoint" />
          </mxGeometry>
        </mxCell>
        <mxCell id="VpYt9LzkhfkG9tVjbVdd-106" value="" style="endArrow=classic;html=1;rounded=0;exitX=0.5;exitY=1;exitDx=0;exitDy=0;strokeColor=#4472C4;" edge="1" parent="1">
          <mxGeometry width="50" height="50" relative="1" as="geometry">
            <mxPoint x="607.71" y="710" as="sourcePoint" />
            <mxPoint x="608" y="770" as="targetPoint" />
          </mxGeometry>
        </mxCell>
        <mxCell id="VpYt9LzkhfkG9tVjbVdd-110" value="&lt;font face=&quot;Comic Sans MS&quot; style=&quot;font-size: 8px;&quot;&gt;&amp;nbsp;&lt;font color=&quot;#ff8000&quot;&gt;Retaining&amp;nbsp;&lt;/font&gt;&lt;/font&gt;&lt;div&gt;&lt;font color=&quot;#ffffff&quot; face=&quot;Comic Sans MS&quot; style=&quot;font-size: 8px;&quot;&gt;Multiple Models&lt;/font&gt;&lt;/div&gt;" style="text;html=1;align=center;verticalAlign=middle;whiteSpace=wrap;rounded=0;" vertex="1" parent="1">
          <mxGeometry x="171" y="824" width="137" height="30" as="geometry" />
        </mxCell>
        <mxCell id="VpYt9LzkhfkG9tVjbVdd-112" value="&lt;div&gt;&lt;font color=&quot;#ff8000&quot; face=&quot;Comic Sans MS&quot; style=&quot;font-size: 8px;&quot;&gt;Data Requirement&lt;/font&gt;&lt;/div&gt;&lt;div&gt;&lt;font color=&quot;#ff8000&quot; face=&quot;Comic Sans MS&quot; style=&quot;font-size: 8px;&quot;&gt;Gradient-Based Training&lt;/font&gt;&lt;/div&gt;&lt;div&gt;&lt;font color=&quot;#ffffff&quot; face=&quot;Comic Sans MS&quot; style=&quot;font-size: 8px;&quot;&gt;Single Model&lt;/font&gt;&lt;/div&gt;" style="text;html=1;align=center;verticalAlign=middle;whiteSpace=wrap;rounded=0;" vertex="1" parent="1">
          <mxGeometry x="354.5" y="824" width="137" height="30" as="geometry" />
        </mxCell>
        <mxCell id="VpYt9LzkhfkG9tVjbVdd-114" value="&lt;div&gt;&lt;font face=&quot;Comic Sans MS&quot;&gt;&lt;font color=&quot;#007fff&quot; style=&quot;font-size: 8px;&quot;&gt;Data Free&lt;/font&gt;&lt;/font&gt;&lt;/div&gt;&lt;div&gt;&lt;font color=&quot;#007fff&quot; face=&quot;Comic Sans MS&quot;&gt;&lt;span style=&quot;font-size: 8px; background-color: initial;&quot;&gt;Training Free&lt;/span&gt;&lt;/font&gt;&lt;/div&gt;&lt;div&gt;&lt;font color=&quot;#ffffff&quot; face=&quot;Comic Sans MS&quot;&gt;&lt;span style=&quot;font-size: 8px; background-color: initial;&quot;&gt;Single Model&lt;/span&gt;&lt;/font&gt;&lt;/div&gt;" style="text;html=1;align=center;verticalAlign=middle;whiteSpace=wrap;rounded=0;" vertex="1" parent="1">
          <mxGeometry x="538" y="824" width="137" height="30" as="geometry" />
        </mxCell>
        <mxCell id="VpYt9LzkhfkG9tVjbVdd-125" value="&lt;font color=&quot;#ffffff&quot; style=&quot;font-size: 8px;&quot;&gt;Agents Integrating&lt;/font&gt;" style="text;html=1;align=center;verticalAlign=middle;whiteSpace=wrap;rounded=0;" vertex="1" parent="1">
          <mxGeometry x="566.5" y="679" width="80" height="30" as="geometry" />
        </mxCell>
        <mxCell id="VpYt9LzkhfkG9tVjbVdd-126" value="&lt;font color=&quot;#ffffff&quot; style=&quot;font-size: 8px;&quot;&gt;PTM&lt;/font&gt;" style="rounded=1;whiteSpace=wrap;html=1;fillColor=#4472C4;strokeColor=#4472C4;fontColor=#ffffff;" vertex="1" parent="1">
          <mxGeometry x="398" y="594" width="50" height="30" as="geometry" />
        </mxCell>
        <mxCell id="VpYt9LzkhfkG9tVjbVdd-127" value="&lt;span style=&quot;font-size: 8px;&quot;&gt;&lt;font color=&quot;#ffffff&quot;&gt;Multi-Task Model&lt;/font&gt;&lt;/span&gt;" style="rounded=1;whiteSpace=wrap;html=1;fillColor=#fa6800;strokeColor=#C73500;fontColor=#000000;" vertex="1" parent="1">
          <mxGeometry x="383.75" y="772" width="78.5" height="30" as="geometry" />
        </mxCell>
        <mxCell id="VpYt9LzkhfkG9tVjbVdd-128" value="&lt;font style=&quot;font-size: 8px;&quot;&gt;Agent M&lt;sub&gt;1&lt;/sub&gt;&lt;/font&gt;" style="rounded=1;whiteSpace=wrap;html=1;fillColor=#76608a;strokeColor=#432D57;opacity=60;fontColor=#ffffff;" vertex="1" parent="1">
          <mxGeometry x="488" y="624" width="50" height="30" as="geometry" />
        </mxCell>
        <mxCell id="VpYt9LzkhfkG9tVjbVdd-129" value="&lt;font style=&quot;font-size: 8px;&quot;&gt;Agent M&lt;sub&gt;2&lt;/sub&gt;&lt;/font&gt;" style="rounded=1;whiteSpace=wrap;html=1;fillColor=#e51400;strokeColor=#B20000;opacity=60;fontColor=#ffffff;" vertex="1" parent="1">
          <mxGeometry x="548" y="624" width="50" height="30" as="geometry" />
        </mxCell>
        <mxCell id="VpYt9LzkhfkG9tVjbVdd-130" value="&lt;font style=&quot;font-size: 8px;&quot;&gt;Agent M&lt;sub&gt;N&lt;/sub&gt;&lt;/font&gt;" style="rounded=1;whiteSpace=wrap;html=1;fillColor=#647687;strokeColor=#314354;opacity=60;fontColor=#ffffff;" vertex="1" parent="1">
          <mxGeometry x="656" y="624" width="50" height="30" as="geometry" />
        </mxCell>
        <mxCell id="VpYt9LzkhfkG9tVjbVdd-131" value="&lt;span style=&quot;font-size: 8px;&quot;&gt;&lt;font color=&quot;#ffffff&quot;&gt;Multi-Task Model&lt;/font&gt;&lt;/span&gt;" style="rounded=1;whiteSpace=wrap;html=1;fillColor=#fa6800;strokeColor=#C73500;fontColor=#000000;" vertex="1" parent="1">
          <mxGeometry x="568.75" y="772" width="78.5" height="30" as="geometry" />
        </mxCell>
        <mxCell id="VpYt9LzkhfkG9tVjbVdd-132" value="" style="verticalLabelPosition=bottom;verticalAlign=top;html=1;shape=mxgraph.basic.smiley;fillColor=#330000;fontColor=#ffffff;strokeColor=#6D1F00;" vertex="1" parent="1">
          <mxGeometry x="637" y="824" width="19" height="18.5" as="geometry" />
        </mxCell>
      </root>
    </mxGraphModel>
  </diagram>
</mxfile>
